<svg width="128" height="128" viewBox="0 0 128 128" fill="none" xmlns="http://www.w3.org/2000/svg">
  <defs>
    <linearGradient id="bg" x1="16" y1="12" x2="114" y2="118" gradientUnits="userSpaceOnUse">
      <stop stop-color="#FFB36B"/>
      <stop offset="0.52" stop-color="#E95A2D"/>
      <stop offset="1" stop-color="#A42A17"/>
    </linearGradient>
    <linearGradient id="bag" x1="42" y1="26" x2="86" y2="102" gradientUnits="userSpaceOnUse">
      <stop stop-color="#FFF6ED"/>
      <stop offset="1" stop-color="#FFD9BE"/>
    </linearGradient>
  </defs>
  <circle cx="64" cy="64" r="60" fill="url(#bg)"/>
  <path d="M37 39c0-2.2 1.8-4 4-4h46c2.2 0 4 1.8 4 4v44.5c0 10.7-8.7 19.5-19.5 19.5h-15C45.7 103 37 94.2 37 83.5V39Z" fill="url(#bag)"/>
  <path d="M46 37c0-8.3 6.7-15 15-15h6c8.3 0 15 6.7 15 15" stroke="#FFF4E8" stroke-width="6" stroke-linecap="round"/>
  <path d="M47 55c7.3-5.1 15.4-7.7 24.3-7.7 10.1 0 17.8 2.6 23.3 7.7" stroke="#E95A2D" stroke-width="6" stroke-linecap="round"/>
  <path d="M49 72c6.2-4 13.3-6 21.3-6 8.8 0 15.7 2 20.7 6" stroke="#C9481F" stroke-width="6" stroke-linecap="round"/>
  <circle cx="43" cy="36" r="5" fill="#FFF1E4"/>
  <circle cx="94" cy="31" r="7" fill="#FFF1E4"/>
  <path d="M93 24v14M86 31h14" stroke="#FFF1E4" stroke-width="4" stroke-linecap="round"/>
  <path d="M33 85c5 5 10 7.4 15 7.4s10-2.4 15-7.4" stroke="#FFFFFF" stroke-opacity="0.6" stroke-width="4" stroke-linecap="round"/>
</svg>
